<svg id="Layer_1" data-name="Layer 1" xmlns="http://www.w3.org/2000/svg" viewBox="0 0 466 246"><defs><style>.cls-1{fill:#30b7f7;}.cls-2{fill:#3d68c4;opacity:0.82;}</style></defs><title>Untitled-1</title><path class="cls-1" d="M217,287V393H683V147a469.43,469.43,0,0,0-99,46c-75.44,46.5-92.67,87.27-137,112C405.76,328,337.11,339.34,217,287Z" transform="translate(-217 -147)"/><path class="cls-2" d="M217,347v46H683V316c-5.44,6-14.07,13.5-26,16-28.75,6-53.57-20.76-88-49-57.71-47.33-94.23-77.28-138-76-49.61,1.45-89.64,42.48-96,49-25.76,26.4-28.52,48.21-59,69C254.54,339.64,232.38,344.87,217,347Z" transform="translate(-217 -147)"/></svg>