<svg id="Layer_1" data-name="Layer 1" xmlns="http://www.w3.org/2000/svg" viewBox="0 0 590.5 415"><defs><style>.cls-1{fill:#ff97ae;}.cls-2{fill:#5374e7;opacity:0.89;}.cls-3{fill:#fff;}</style></defs><title>Untitled-1</title><rect class="cls-1" x="239.11" y="32.21" width="351.39" height="351.39" rx="175.7"/><rect class="cls-2" width="415" height="415" rx="207.5"/><path class="cls-3" d="M414.5,292.5c-16.44,16.78-2.39,43.3-5.94,105.18-1.82,31.62-6.91,49.52-1.06,81.63.54,3,7.27,32.95,14,32.49,5.1-.34,11.59-18.31,16.35-103.24a205.49,205.49,0,0,1,11.67-43,186.34,186.34,0,0,1,35-56.86,750.73,750.73,0,0,1,0,81.23c-2.35,42.8-9,69.55,4.88,96,5.32,10.14,14,21.09,18.76,19,5.45-2.38.66-20,4.38-50.1,2.83-22.84,9-40.23,13.2-51.83a294,294,0,0,1,16.41-36.7,361.58,361.58,0,0,1,19.43-33.31c-1,22.24-1.15,46.73,0,73.1,1.3,29.72,4.08,56.91,7.53,81.17,5.55,14.24,14.29,34,20.5,32.54,5-1.22,6.55-15.93,7-24.36,2.61-48.83.77-149.81,0-186.82-1.32-6.54-5-21.09-14-24.36-11.25-4.09-23.91,11-35,24.36-7.73,9.27-18.92,25-28,48.74-.46-8.19-2.91-51.21-7-81.23-.58-4.27-1.73-12-7-16.24-7.44-6-18.15-1.36-21,0l-49,73.1a151,151,0,0,1,0-32.49c1-8.66,2.35-13.88,0-16.24C431.77,280.61,420.66,286.21,414.5,292.5Z" transform="translate(-302.5 -188.5)"/></svg>